<!-- Generated by IcoMoon.io -->
<svg xmlns="http://www.w3.org/2000/svg" width="27.03" height="23" viewBox="0 0 27.03 23">
    <defs>
        <style>
            .prefix__cls-1{fill:#fff}
        </style>
    </defs>
    <g id="prefix__Group_145" data-name="Group 145" transform="translate(-321 -443.672)">
        <g id="prefix__Group_142" data-name="Group 142" transform="translate(-726.342 -2226.794)">
            <path id="prefix__Path_214" d="M1069.138 2682.888v-9.926a2.5 2.5 0 0 0-2.495-2.5h-16.806a2.5 2.5 0 0 0-2.495 2.5v9.926a2.5 2.5 0 0 0 2.495 2.5h.712v2.992a1 1 0 0 0 1.761.652l3.153-3.65h11.185a2.49 2.49 0 0 0 2.49-2.494zm-13.99 1.143a.679.679 0 0 0-.513.232l-2.739 3.163v-2.721a.678.678 0 0 0-.679-.679h-1.38a1.146 1.146 0 0 1-1.143-1.143v-9.921a1.145 1.145 0 0 1 1.143-1.143h16.806a1.144 1.144 0 0 1 1.142 1.143v9.926a1.144 1.144 0 0 1-1.142 1.143z" class="prefix__cls-1" data-name="Path 214"/>
            <path id="prefix__Path_215" d="M1069.409 2693.118a.983.983 0 0 0 .75.348 1 1 0 0 0 .354-.066.989.989 0 0 0 .651-.938v-2.993h.713a2.5 2.5 0 0 0 2.495-2.495v-9.927a2.5 2.5 0 0 0-2.495-2.5.676.676 0 1 0 0 1.352 1.145 1.145 0 0 1 1.142 1.143v9.927a1.145 1.145 0 0 1-1.142 1.143h-1.386a.678.678 0 0 0-.679.679v2.722l-2.739-3.164a.67.67 0 0 0-.513-.232h-10.16a.679.679 0 0 0 0 1.358h9.85z" class="prefix__cls-1" data-name="Path 215"/>
            <circle id="prefix__Ellipse_10" cx=".806" cy=".806" r=".806" class="prefix__cls-1" data-name="Ellipse 10" transform="translate(1057.434 2677.356)"/>
            <path id="prefix__Path_216" d="M1061.746 2678.162a.806.806 0 1 1-.806-.806.806.806 0 0 1 .806.806z" class="prefix__cls-1" data-name="Path 216"/>
            <path id="prefix__Path_217" d="M1056.346 2678.162a.806.806 0 1 1-.806-.806.806.806 0 0 1 .806.806z" class="prefix__cls-1" data-name="Path 217"/>
        </g>
    </g>
</svg>
