<!-- Generated by IcoMoon.io -->
<svg xmlns="http://www.w3.org/2000/svg" width="15.644" height="19.506" viewBox="0 0 15.644 19.506">
    <g id="prefix__Group_178" data-name="Group 178" transform="translate(-6878.513 -1782.255)">
        <path id="prefix__Path_264" d="M6894.122 1783.322a.252.252 0 0 1 .01.236l-4.764 10.131a.254.254 0 0 1-.1.112.261.261 0 0 1-.117.034.256.256 0 0 1-.232-.127l-1.883-3.262c-1.86.736-6.5 3.341-6.646 11.065a.257.257 0 0 1-.128.216.24.24 0 0 1-.07.028.255.255 0 0 1-.284-.132c-.053-.1-5.087-10.2 4.323-16.035l-1.7-2.95a.255.255 0 0 1 .242-.382l11.156.939a.255.255 0 0 1 .193.127z" data-name="Path 264" style="fill:#fff"/>
    </g>
</svg>