<!-- Generated by IcoMoon.io -->
<svg xmlns="http://www.w3.org/2000/svg" width="26.918" height="23.932" viewBox="0 0 26.918 23.932">
    <defs>
        <style>
            .prefix__cls-1{fill:#fff}
        </style>
    </defs>
    <g id="prefix__Group_143" data-name="Group 143" transform="translate(-384.984 -441.004)">
        <g id="prefix__Group_135" data-name="Group 135" transform="translate(-1088.342 -2229.794)">
            <path id="prefix__Path_205" d="M1491.39 2670.8v1.786h5.8l-10.506 10.44 1.259 1.267 10.52-10.454v5.965h1.786v-9z" class="prefix__cls-1" data-name="Path 205"/>
            <path id="prefix__Path_206" d="M1495.146 2680.536v8.575a1.232 1.232 0 0 1-1.229 1.229h-18.171a1.229 1.229 0 0 1-1.229-1.229v-10.9a1.229 1.229 0 0 1 1.229-1.226h13.939v-1.191h-13.939a2.421 2.421 0 0 0-2.42 2.417v10.9a2.422 2.422 0 0 0 2.42 2.42h6.389v2.108h-2.79a.458.458 0 0 0-.459.459v.173a.458.458 0 0 0 .459.459h11.112a.459.459 0 0 0 .459-.459v-.173a.459.459 0 0 0-.459-.459h-2.757v-2.108h6.214a2.423 2.423 0 0 0 2.42-2.42v-8.575zm-8.559 13.1h-3.336v-2.108h3.336z" class="prefix__cls-1" data-name="Path 206"/>
        </g>
    </g>
</svg>
